# AST/ASF file generated using VICON BodyLanguage
# -----------------------------------------------
:version 1.10
:name VICON
:units
  mass 1.0
  length 0.45
  angle deg
:documentation
   .ast/.asf automatically generated from VICON data using
   VICON BodyBuilder and BodyLanguage model FoxedUp or BRILLIANT.MOD
:root
   order TX TY TZ RX RY RZ
   axis XYZ
   position 0 0 0  
   orientation 0 0 0 
:bonedata
  begin
     id 1 
     name lhipjoint
     direction 0.573633 -0.743009 0.344793 
     length 2.46257 
     axis 0 0 0  XYZ
  end
  begin
     id 2 
     name lfemur
     direction 0.34202 -0.939693 0  
     length 7.3842  
     axis 0 0 20  XYZ
    dof rx ry rz
    limits (-160.0 20.0)
           (-70.0 70.0)
           (-60.0 70.0)
  end
  begin
     id 3 
     name ltibia
     direction 0.34202 -0.939693 0   
     length 7.50407   
     axis 0 0 20   XYZ
    dof rx
    limits (-10.0 170.0)
  end
  begin
     id 4 
     name lfoot
     direction 0.110749 -0.304281 0.946123   
     length 1.95925   
     axis -90 7.62852e-016 20   XYZ
    dof rx rz
    limits (-45.0 90.0)
           (-70.0 20.0)
  end
  begin
     id 5 
     name ltoes
     direction 1.53554e-011 -4.21843e-011 1   
     length 0.978318   
     axis -90 7.62852e-016 20   XYZ
    dof rx
    limits (-90.0 20.0)
  end
  begin
     id 6 
     name rhipjoint
     direction -0.488109 -0.791693 0.367385   
     length 2.31113  
     axis 0 0 0  XYZ 
  end
  begin
     id 7 
     name rfemur
     direction -0.34202 -0.939693 0   
     length 7.40965   
     axis 0 0 -20   XYZ
    dof rx ry rz
    limits (-160.0 20.0)
           (-70.0 70.0)
           (-70.0 60.0)
  end
  begin
     id 8 
     name rtibia
     direction -0.34202 -0.939693 0   
     length 7.55548   
     axis 0 0 -20   XYZ
    dof rx
    limits (-10.0 170.0)
 end
 begin
     id 9 
     name rfoot
     direction -0.127594 -0.350561 0.927808   
     length 2.07199  
     axis -90 -7.62852e-016 -20   XYZ
    dof rx rz
    limits (-45.0 90.0)
           (-20.0 70.0)
  end
  begin
     id 10 
     name rtoes
     direction -1.53542e-011 -4.21909e-011 1   
     length 1.02667   
     axis -90 -7.62852e-016 -20   XYZ
    dof rx
    limits (-90.0 20.0)
  end
  begin
     id 11 
     name lowerback
     direction -0.0103342 0.997298 -0.0727278   
     length 2.02836   
     axis 0 0 0   XYZ
    dof rx ry rz
    limits (-20.0 45.0)
           (-30.0 30.0)
           (-30.0 30.0)
  end
  begin
     id 12 
     name upperback
     direction 0.0171146 0.999786 -0.011606   
     length 2.03179   
     axis 0 0 0   XYZ
    dof rx ry rz
    limits (-20.0 45.0)
           (-30.0 30.0)
           (-30.0 30.0)
  end
  begin
     id 13 
     name thorax
     direction 0.0216927 0.999513 0.0224343   
     length 2.03882   
     axis 0 0 0   XYZ
    dof rx ry rz
    limits (-20.0 45.0)
           (-30.0 30.0)
           (-30.0 30.0)
  end
  begin
     id 14 
     name lowerneck
     direction 0.000989287 0.993907 0.110221   
     length 1.75428   
     axis 0 0 0   XYZ
    dof rx ry rz
    limits (-20.0 45.0)
           (-30.0 30.0)
           (-30.0 30.0)
  end
  begin
     id 15 
     name upperneck
     direction -0.0172474 0.994813 -0.100253   
     length 1.77058   
     axis 0 0 0   XYZ
    dof rx ry rz
    limits (-20.0 45.0)
           (-30.0 30.0)
           (-30.0 30.0)
  end
  begin
     id 16
     name head
     direction -0.00486455 0.99894 -0.0457663  
     length 1.77427  
     axis 0 0 0   XYZ
    dof rx ry rz
    limits (-20.0 45.0)
           (-30.0 30.0)
           (-30.0 30.0)
  end
  begin
     id 17 
     name lclavicle
     direction 0.927314 0.333734 -0.169441  
     length 3.97584  
     axis 0 0 0   XYZ
    dof ry rz
    limits (-20.0 10.0)
           (0.0 20.0)
  end
  begin
     id 18 
     name lhumerus
     direction 1 -4.48965e-011 -3.25313e-028   
     length 4.76468   
     axis 180 -30 -90   XYZ
    dof rx ry rz
    limits (-60.0 90.0)
           (-90.0 90.0)
           (-90.0 90.0)
  end
  begin
     id 19
     name lradius
     direction 1 -4.48969e-011 -2.8465e-028   
     length 3.52712   
     axis -180 -30 -90   XYZ
    dof rx
    limits (-10.0 170.0)
  end
  begin
     id 20
     name lwrist
     direction 1 -4.4896e-011 -7.78665e-028   
     length 1.76356   
     axis 1.91374e-015 90 90   XYZ
    dof ry
    limits (-180.0 0.0)
 end
  begin
     id 21 
     name lhand
     direction 1 -4.48959e-011 -1.55733e-027   
     length 0.859564   
     axis 9.9371e-016 90 90   XYZ
    dof rx rz
    limits (-90.0 90.0)
           (-45.0 45.0)
  end
  begin
     id 22 
     name lfingers
     direction 1 -4.48965e-011 -3.11466e-027   
     length 0.693002   
     axis 1.98742e-015 90 90   XYZ
    dof rx
    limits (0.0 90.0)
  end
  begin
     id 23
     name lthumb
     direction 0.707107 -6.34948e-011 0.707107   
     length 0.995017   
     axis -90 45 2.85299e-015   XYZ
    dof rx rz
    limits (-45.0 45.0)
           (-45.0 45.0)
  end
  begin
     id 24 
     name rclavicle
     direction -0.899388 0.348209 -0.264294   
     length 3.68366  
     axis 0 0 0   XYZ 
    dof ry rz
    limits (-10.0 20.0)
           (-20.0 0.0)
  end
  begin
     id 25 
     name rhumerus
     direction -1 -4.48965e-011 -3.01536e-027  
     length 4.90577   
     axis 180 30 90   XYZ
    dof rx ry rz
    limits (-90.0 60.0)
           (-90.0 90.0)
           (-90.0 90.0)
  end
  begin
     id 26 
     name rradius
     direction -1 -4.48966e-011 3.93291e-027   
     length 3.42692   
     axis -180 30 90   XYZ
    dof rx
    limits (-10.0 170.0)
  end
  begin
     id 27 
     name rwrist
     direction -1 -4.48969e-011 -7.78665e-028   
     length 1.71346   
     axis 1.91374e-015 -90 -90   XYZ
    dof ry
    limits (-180.0 0.0)
  end
  begin
     id 28
     name rhand
     direction -1 -4.48967e-011 -1.55733e-027   
     length 0.740957   
     axis 9.9371e-016 -90 -90   XYZ
    dof rx rz
    limits (-90.0 90.0)
           (-45.0 45.0)
  end
  begin
     id 29
     name rfingers
     direction -1 -4.48949e-011 -3.11466e-027   
     length 0.597378   
     axis 1.98742e-015 -90 -90   XYZ
    dof rx
    limits (0.0 90.0)
  end
  begin
     id 30
     name rthumb
     direction -0.707107 -6.34931e-011 0.707107   
     length 0.857719   
     axis -90 -45 -2.85299e-015   XYZ
    dof rx rz
    limits (-45.0 45.0)
           (-45.0 45.0)
  end
:hierarchy
  begin
    root lhipjoint rhipjoint lowerback
    lhipjoint lfemur
    lfemur ltibia
    ltibia lfoot
    lfoot ltoes
    rhipjoint rfemur
    rfemur rtibia
    rtibia rfoot
    rfoot rtoes
    lowerback upperback
    upperback thorax
    thorax lowerneck lclavicle rclavicle
    lowerneck upperneck
    upperneck head
    lclavicle lhumerus
    lhumerus lradius
    lradius lwrist
    lwrist lhand lthumb
    lhand lfingers
    rclavicle rhumerus
    rhumerus rradius
    rradius rwrist
    rwrist rhand rthumb
    rhand rfingers
  end

#!OML:ASF E:\I on waltz\AllaLogoMonkeySwing\Project 1\Capture day 1\Session 1\Subject1.ASF
:FULLY-SPECIFIED
:DEGREES
655
root 0.430762 17.568 -26.3452 1.18213 7.6066 0.0278603
lowerback 5.79167 1.60568 -3.24799
upperback 0.430446 1.96408 1.17398
thorax -2.95415 1.02735 2.87194
lowerneck -8.15559 10.0739 6.8638
upperneck 19.2874 13.3017 -2.19584
head 7.9126 6.65421 -0.541709
rclavicle 4.68386e-015 -1.98785e-016
rhumerus -27.8471 -31.2653 -75.1669
rradius 16.5325
rwrist 17.1005
rhand -7.54134 -394.997
rfingers 7.12502
rthumb 18.3501 -64.1517
lclavicle 4.68386e-015 -1.98785e-016
lhumerus -34.3399 25.9759 80.7471
lradius 30.8213
lwrist -7.54588
lhand -9.51304 -15.6936
lfingers 7.12502
lthumb 16.4525 13.6288
rfemur -7.93753 -2.52523 19.9981
rtibia 31.8096
rfoot -23.6053 -8.60882
rtoes 19.867
lfemur -8.11668 0.263158 -22.0961
ltibia 28.7832
lfoot -23.5936 -3.56457
ltoes -23.321
656
root 0.424489 17.5687 -26.3407 1.2525 7.61953 0.117992
lowerback 5.74226 1.62595 -3.29731
upperback 0.455365 1.98801 1.12077
thorax -2.90227 1.0383 2.84411
lowerneck -8.03957 10.0407 6.95436
upperneck 19.0682 13.2678 -2.33665
head 7.8341 6.63456 -0.615781
rclavicle -2.24999e-014 4.17448e-015
rhumerus -28.3124 -31.6027 -74.8853
rradius 16.6453
rwrist 17.2689
rhand -7.56075 -395.189
rfingers 7.12502
rthumb 18.3314 -64.3455
lclavicle -2.24999e-014 4.17448e-015
lhumerus -34.5748 26.422 80.3889
lradius 30.4902
lwrist -8.04987
lhand -9.64993 -15.8147
lfingers 7.12502
lthumb 16.3207 13.5185
rfemur -8.02784 -2.55312 19.9229
rtibia 31.8914
rfoot -23.6485 -8.61665
rtoes 20.053
lfemur -8.13066 0.300532 -22.1744
ltibia 28.7087
lfoot -23.5919 -3.52949
ltoes -23.4229
657
root 0.416707 17.5677 -26.3381 1.29909 7.57499 0.184644
lowerback 5.7278 1.6422 -3.37326
upperback 0.479781 2.00453 1.08998
thorax -2.87168 1.04639 2.85427
lowerneck -7.91523 10.0829 7.10972
upperneck 18.9314 13.3496 -2.55893
head 7.79802 6.66693 -0.710174
rclavicle 1.88597e-014 -1.49089e-014
rhumerus -28.6407 -32.079 -74.5774
rradius 16.5969
rwrist 17.7401
rhand -7.64398 -395.617
rfingers 7.12502
rthumb 18.2514 -64.7808
lclavicle 1.88597e-014 -1.49089e-014
lhumerus -34.8837 26.9125 80.0014
lradius 30.261
lwrist -8.48412
lhand -9.8858 -15.9336
lfingers 7.12502
lthumb 16.0936 13.4182
rfemur -8.10105 -2.55651 19.8886
rtibia 31.9616
rfoot -23.6483 -8.69548
rtoes 19.8979
lfemur -8.14138 0.367492 -22.2143
ltibia 28.6646
lfoot -23.65 -3.53155
ltoes -23.1606
658
root 0.409514 17.5678 -26.3371 1.35463 7.47672 0.257751
lowerback 5.73455 1.68307 -3.42237
upperback 0.496088 2.05432 1.04329
thorax -2.86239 1.07106 2.82931
lowerneck -7.87784 10.1039 7.15638
upperneck 18.8078 13.3903 -2.66976
head 7.76382 6.68076 -0.752834
rclavicle -4.49999e-014 1.80894e-014
rhumerus -28.8308 -32.6314 -74.2544
rradius 16.4241
rwrist 18.1462
rhand -7.88471 -395.647
rfingers 7.12502
rthumb 18.0198 -64.8326
lclavicle -4.49999e-014 1.80894e-014
lhumerus -35.1895 27.1844 79.6987
lradius 30.1236
lwrist -8.74593
lhand -10.3242 -15.9433
lfingers 7.12502
lthumb 15.6715 13.442
rfemur -8.18679 -2.57467 19.8235
rtibia 31.9977
rfoot -23.6668 -8.55297
rtoes 19.8617
lfemur -8.18414 0.564152 -22.268
ltibia 28.6661
lfoot -23.8059 -3.52623
ltoes -23.2888
659
root 0.401752 17.5695 -26.3372 1.43046 7.41784 0.310755
lowerback 5.72728 1.72757 -3.46901
upperback 0.504714 2.11036 1.02433
thorax -2.85462 1.09914 2.83139
lowerneck -7.58912 10.0303 7.349
upperneck 18.4716 13.3014 -2.86213
head 7.62487 6.64128 -0.876239
rclavicle 7.96381e-015 -1.98785e-016
rhumerus -29.0029 -32.9557 -73.9742
rradius 16.375
rwrist 18.1719
rhand -7.74618 -395.571
rfingers 7.12502
rthumb 18.153 -64.7436
lclavicle 7.96381e-015 -1.98785e-016
lhumerus -35.3958 27.3945 79.4759
lradius 29.9524
lwrist -8.73892
lhand -10.5233 -15.8646
lfingers 7.12502
lthumb 15.4797 13.5357
rfemur -8.27675 -2.6047 19.7807
rtibia 31.9889
rfoot -23.634 -8.43341
rtoes 20.0992
lfemur -8.27807 0.757443 -22.2946
ltibia 28.7134
lfoot -23.9053 -3.56285
ltoes -23.4936
660
root 0.392081 17.5715 -26.3387 1.44865 7.40575 0.153335
lowerback 5.7697 1.73401 -3.32639
upperback 0.514094 2.12812 1.07073
thorax -2.86657 1.1066 2.79666
lowerneck -7.42379 10.0197 7.39456
upperneck 18.2678 13.286 -2.88555
head 7.53284 6.63864 -0.906332
rclavicle 6.37353e-015 1.8487e-014
rhumerus -29.1336 -32.7048 -73.9798
rradius 16.5017
rwrist 17.7225
rhand -7.44658 -395.529
rfingers 7.12502
rthumb 18.4413 -64.6747
lclavicle 6.37353e-015 1.8487e-014
lhumerus -35.5739 27.7888 79.168
lradius 29.7561
lwrist -8.8641
lhand -10.3087 -15.6728
lfingers 7.12502
lthumb 15.6864 13.7114
rfemur -8.30797 -2.56044 20.0017
rtibia 31.9436
rfoot -23.5393 -8.5538
rtoes 20.2854
lfemur -8.36294 0.812216 -22.0789
ltibia 28.7931
lfoot -23.9296 -3.57327
ltoes -23.6047
661
root 0.382906 17.5738 -26.3399 1.43598 7.38182 -0.108415
lowerback 5.82411 1.72453 -3.02469
upperback 0.541214 2.13458 1.10771
thorax -2.85976 1.10586 2.66367
lowerneck -7.46599 10.0518 7.44869
upperneck 18.2969 13.3211 -2.89024
head 7.55613 6.65723 -0.908756
rclavicle -1.34677e-014 -2.5842e-015
rhumerus -29.1573 -32.0701 -74.2914
rradius 16.6633
rwrist 17.0577
rhand -7.48558 -395.325
rfingers 7.12502
rthumb 18.4038 -64.4744
lclavicle -1.34677e-014 -2.5842e-015
lhumerus -35.7449 28.1098 78.8642
lradius 29.6831
lwrist -8.9981
lhand -10.0348 -15.3989
lfingers 7.12502
lthumb 15.9502 13.9644
rfemur -8.31566 -2.44435 20.3452
rtibia 31.8899
rfoot -23.4215 -8.61112
rtoes 20.5697
lfemur -8.44283 0.868673 -21.7535
ltibia 28.8812
lfoot -23.9473 -3.56053
ltoes -23.7243
662
root 0.374864 17.5758 -26.3414 1.49258 7.32138 -0.192016
lowerback 5.81354 1.73678 -2.88764
upperback 0.572691 2.15993 1.09797
thorax -2.81758 1.11573 2.57517
lowerneck -7.46428 10.0836 7.50301
upperneck 18.2408 13.368 -2.962
head 7.54899 6.67691 -0.935642
rclavicle 2.83765e-014 -4.77083e-015
rhumerus -29.1388 -31.7455 -74.4963
rradius 16.7642
rwrist 16.6929
rhand -7.41267 -395.252
rfingers 7.12502
rthumb 18.4739 -64.395
lclavicle 2.83765e-014 -4.77083e-015
lhumerus -35.8092 28.1875 78.7493
lradius 29.6433
lwrist -8.8095
lhand -9.87294 -15.2535
lfingers 7.12502
lthumb 16.106 14.0973
rfemur -8.3913 -2.38599 20.4737
rtibia 31.8547
rfoot -23.2719 -8.43622
rtoes 21.2139
lfemur -8.57771 0.953142 -21.6371
ltibia 28.9565
lfoot -23.9479 -3.52398
ltoes -23.7722
663
root 0.366093 17.5765 -26.3436 1.58102 7.25431 -0.132264
lowerback 5.80662 1.76859 -2.91635
upperback 0.585712 2.19989 1.0707
thorax -2.80295 1.1354 2.56007
lowerneck -7.30914 10.1114 7.47608
upperneck 17.9871 13.4096 -2.96715
head 7.43909 6.69828 -0.944016
rclavicle 1.94064e-014 5.1684e-015
rhumerus -29.154 -31.6815 -74.5477
rradius 16.8515
rwrist 16.4342
rhand -7.17024 -395.23
rfingers 7.12502
rthumb 18.7071 -64.3505
lclavicle 1.94064e-014 5.1684e-015
lhumerus -35.8306 28.1817 78.6834
lradius 29.5434
lwrist -8.69075
lhand -9.63834 -15.2632
lfingers 7.12502
lthumb 16.3319 14.0691
rfemur -8.51331 -2.47809 20.4226
rtibia 31.868
rfoot -23.1724 -8.20698
rtoes 21.7032
lfemur -8.70283 0.929977 -21.6875
ltibia 28.9903
lfoot -23.9462 -3.40969
ltoes -23.9168
664
root 0.355756 17.5774 -26.3459 1.65063 7.16549 -0.0832677
lowerback 5.83869 1.82403 -2.91949
upperback 0.587861 2.27121 1.02432
thorax -2.82171 1.17087 2.5068
lowerneck -7.19225 10.1129 7.42377
upperneck 17.7683 13.4043 -2.90326
head 7.33832 6.70056 -0.929227
rclavicle 2.02263e-014 1.07344e-014
rhumerus -29.175 -31.4896 -74.7041
rradius 16.9708
rwrist 16.0638
rhand -7.21962 -395.124
rfingers 7.12502
rthumb 18.6596 -64.2493
lclavicle 2.02263e-014 1.07344e-014
lhumerus -35.8825 28.0861 78.5697
lradius 29.4911
lwrist -8.78724
lhand -9.24653 -15.306
lfingers 7.12502
lthumb 16.7091 13.9949
rfemur -8.64869 -2.56524 20.3877
rtibia 31.9361
rfoot -23.1056 -8.10724
rtoes 21.7273
lfemur -8.76648 0.841878 -21.722
ltibia 28.9686
lfoot -23.9245 -3.27499
ltoes -24.0066
665
root 0.343277 17.5786 -26.3485 1.69945 7.08053 0.0438875
lowerback 5.91303 1.86028 -3.01232
upperback 0.584576 2.30919 0.957417
thorax -2.87016 1.19115 2.48415
lowerneck -7.29794 10.1373 7.26008
upperneck 17.9081 13.4191 -2.69048
head 7.37636 6.71243 -0.827839
rclavicle -3.89494e-014 -7.95139e-016
rhumerus -29.1546 -31.1156 -74.96
rradius 17.1338
rwrist 15.5846
rhand -7.37806 -395.155
rfingers 7.12502
rthumb 18.5072 -64.2949
lclavicle -3.89494e-014 -7.95139e-016
lhumerus -35.9751 27.8777 78.4762
lradius 29.5293
lwrist -8.81459
lhand -8.93471 -15.3449
lfingers 7.12502
lthumb 17.0093 13.9304
rfemur -8.75301 -2.58028 20.2879
rtibia 32.0158
rfoot -23.0762 -8.08864
rtoes 21.7048
lfemur -8.78861 0.885722 -21.819
ltibia 28.921
lfoot -23.8522 -3.30469
ltoes -23.8599
